<?xml version="1.0" encoding="iso-8859-1"?>
<!-- Generator: Adobe Illustrator 19.0.0, SVG Export Plug-In . SVG Version: 6.00 Build 0)  -->
<svg version="1.1" id="Capa_1" xmlns="http://www.w3.org/2000/svg" xmlns:xlink="http://www.w3.org/1999/xlink" x="0px" y="0px"
	 viewBox="0 0 409.603 409.603" style="enable-background:new 0 0 409.603 409.603;" xml:space="preserve">
<rect x="184.32" y="320.855" style="fill:#EA3457;" width="40.96" height="61.44"/>
<path style="fill:#602F75;" d="M225.28,389.122h-40.96c-3.768,0-6.827-3.058-6.827-6.827v-61.44c0-3.768,3.058-6.827,6.827-6.827
	h40.96c3.768,0,6.827,3.058,6.827,6.827v61.44C232.107,386.063,229.048,389.122,225.28,389.122z M191.147,375.468h27.307v-47.787
	h-27.307V375.468z"/>
<path style="fill:#FFFFFF;" d="M383.085,334.508H26.515c-10.871,0-19.688-8.813-19.688-19.688V108.436
	c0-10.875,8.813-19.688,19.688-19.688h356.57c10.875,0,19.688,8.813,19.688,19.688V314.82
	C402.773,325.695,393.96,334.508,383.085,334.508z"/>
<path style="fill:#602F75;" d="M383.085,341.335H26.515C11.895,341.335,0,329.443,0,314.82V108.436
	c0-14.623,11.892-26.515,26.515-26.515h356.574c14.619,0,26.515,11.892,26.515,26.515v206.387
	C409.6,329.443,397.708,341.335,383.085,341.335z M26.515,95.575c-7.093,0-12.861,5.769-12.861,12.861v206.387
	c0,7.09,5.769,12.861,12.861,12.861h356.574c7.09,0,12.861-5.769,12.861-12.861V108.436c0-7.089-5.769-12.861-12.861-12.861H26.515z
	"/>
<g>
	<rect x="54.613" y="95.575" style="fill:#00E7FF;" width="88.747" height="232.107"/>
	<rect x="150.187" y="382.295" style="fill:#EA3457;" width="109.227" height="20.48"/>
</g>
<path style="fill:#602F75;" d="M259.413,409.602H150.187c-3.768,0-6.827-3.058-6.827-6.827v-20.48c0-3.768,3.058-6.827,6.827-6.827
	h109.227c3.768,0,6.827,3.058,6.827,6.827v20.48C266.24,406.543,263.182,409.602,259.413,409.602z M157.013,395.948h95.573v-6.827
	h-95.573V395.948z"/>
<path style="fill:#FFE600;" d="M327.68,163.842v-27.307l-102.4-22.804V27.308c0-11.312-9.168-20.48-20.48-20.48
	s-20.48,9.168-20.48,20.48v86.521l-102.4,22.705v27.307l102.4-11.353v93.286l-20.48,6.813v27.307l41.049-13.653l40.871,13.653
	v-27.307l-20.48-6.84v-93.31L327.68,163.842z"/>
<g>
	<path style="fill:#602F75;" d="M163.84,286.722c-1.417,0-2.816-0.44-3.994-1.29c-1.778-1.283-2.833-3.342-2.833-5.536v-27.307
		c0-2.939,1.884-5.55,4.673-6.475l15.807-5.26v-80.739l-94.819,10.513c-1.952,0.191-3.864-0.403-5.308-1.7
		c-1.447-1.297-2.273-3.147-2.273-5.086v-27.307c0-3.202,2.222-5.973,5.349-6.663l97.051-21.524V27.308
		c0-15.056,12.25-27.307,27.307-27.307s27.307,12.25,27.307,27.307v80.947l97.058,21.617c3.123,0.696,5.342,3.461,5.342,6.663
		v27.307c0,1.942-0.826,3.792-2.273,5.086c-1.451,1.294-3.372,1.918-5.311,1.696l-94.816-10.554v80.763l15.817,5.28
		c2.782,0.932,4.663,3.54,4.663,6.475v27.307c0,2.198-1.058,4.256-2.836,5.54c-1.782,1.277-4.076,1.625-6.154,0.932l-38.711-12.93
		L165.99,286.37C165.291,286.609,164.564,286.722,163.84,286.722z M170.667,257.51v12.919l32.072-10.667
		c1.396-0.468,2.915-0.471,4.318,0.003l31.881,10.65v-12.913l-15.817-5.28c-2.785-0.932-4.666-3.54-4.666-6.475v-93.31
		c0-1.942,0.826-3.792,2.273-5.086c1.447-1.297,3.352-1.922,5.311-1.696l94.816,10.557V142.01l-97.058-21.617
		c-3.123-0.7-5.342-3.465-5.342-6.666V27.308c0-7.53-6.124-13.653-13.653-13.653s-13.653,6.124-13.653,13.653v86.521
		c0,3.202-2.222,5.973-5.349,6.663l-97.051,21.521v14.199l94.819-10.513c1.935-0.222,3.864,0.403,5.308,1.7
		c1.447,1.297,2.273,3.147,2.273,5.086v93.286c0,2.939-1.884,5.55-4.673,6.475L170.667,257.51z"/>
	<path style="fill:#602F75;" d="M102.4,225.282c-3.768,0-6.827-3.058-6.827-6.827v-34.133c0-3.768,3.058-6.827,6.827-6.827
		s6.827,3.058,6.827,6.827v34.133C109.227,222.223,106.168,225.282,102.4,225.282z"/>
	<path style="fill:#602F75;" d="M122.88,279.895c-3.768,0-6.827-3.058-6.827-6.827v-68.267c0-3.768,3.058-6.827,6.827-6.827
		c3.768,0,6.827,3.058,6.827,6.827v68.267C129.707,276.837,126.648,279.895,122.88,279.895z"/>
	<path style="fill:#602F75;" d="M273.067,204.802c-3.768,0-6.827-3.058-6.827-6.827v-13.653c0-3.768,3.058-6.827,6.827-6.827
		s6.827,3.058,6.827,6.827v13.653C279.893,201.743,276.835,204.802,273.067,204.802z"/>
	<path style="fill:#602F75;" d="M273.067,279.895c-3.768,0-6.827-3.058-6.827-6.827v-54.613c0-3.768,3.058-6.827,6.827-6.827
		s6.827,3.058,6.827,6.827v54.613C279.893,276.837,276.835,279.895,273.067,279.895z"/>
	<path style="fill:#602F75;" d="M300.373,245.762c-3.768,0-6.827-3.058-6.827-6.827v-47.787c0-3.768,3.058-6.827,6.827-6.827
		s6.827,3.058,6.827,6.827v47.787C307.2,242.703,304.142,245.762,300.373,245.762z"/>
</g>
<g>
</g>
<g>
</g>
<g>
</g>
<g>
</g>
<g>
</g>
<g>
</g>
<g>
</g>
<g>
</g>
<g>
</g>
<g>
</g>
<g>
</g>
<g>
</g>
<g>
</g>
<g>
</g>
<g>
</g>
</svg>
